# xmcd
#
# Track frame offsets:
#	150
#	21468
#	44128
#	72278
#	87365
#	103915
#	126733
#	146853
#	165763
#	186340
#	202700
#
# Disc length: 3018 seconds
#
# Revision: 1
# Processed by: cddbd v1.4PL0 Copyright (c) Steve Scherf et al.
# Submitted via: audiograbber 1.81.01
#
DISCID=a70bc80b
DTITLE=Lowell Fulson - One More Blues
DYEAR=1993
DGENRE=Blues
TTITLE0=Hot Mama
TTITLE1=I Can't Stand It
TTITLE2=Ten More Shows To Play
TTITLE3=Thanks A Lot For The Offer
TTITLE4=Guitar Shuffle
TTITLE5=One Room Country Shack
TTITLE6=Worried About The Blues
TTITLE7=Your Love For Me Is Gone
TTITLE8=Think About It
TTITLE9=One More Blues
TTITLE10=Jump Children
EXTD=
EXTT0=
EXTT1=
EXTT2=
EXTT3=
EXTT4=
EXTT5=
EXTT6=
EXTT7=
EXTT8=
EXTT9=
EXTT10=
PLAYORDER=
